<mxfile host="app.diagrams.net" modified="2020-08-09T18:41:59.521Z" agent="5.0 (Windows NT 10.0; Win64; x64) AppleWebKit/537.36 (KHTML, like Gecko) Chrome/84.0.4147.105 Safari/537.36" etag="o770RkkL4KdST-LgCoZQ" version="13.6.2" type="github">
  <diagram id="xDZMQg_oWkUy296zBAdL" name="Page-1">
    <mxGraphModel dx="1422" dy="1862" grid="1" gridSize="10" guides="1" tooltips="1" connect="1" arrows="1" fold="1" page="1" pageScale="1" pageWidth="850" pageHeight="1100" math="0" shadow="0">
      <root>
        <mxCell id="0" />
        <mxCell id="1" parent="0" />
        <mxCell id="MKO6IdKLwE_xbSHV2B4L-19" style="edgeStyle=orthogonalEdgeStyle;rounded=0;orthogonalLoop=1;jettySize=auto;html=1;fillColor=#008a00;strokeColor=#005700;" edge="1" parent="1" source="MKO6IdKLwE_xbSHV2B4L-4" target="MKO6IdKLwE_xbSHV2B4L-16">
          <mxGeometry relative="1" as="geometry" />
        </mxCell>
        <mxCell id="MKO6IdKLwE_xbSHV2B4L-20" style="edgeStyle=orthogonalEdgeStyle;rounded=0;orthogonalLoop=1;jettySize=auto;html=1;entryX=0.4;entryY=0.1;entryDx=0;entryDy=0;entryPerimeter=0;fillColor=#008a00;strokeColor=#005700;" edge="1" parent="1" source="MKO6IdKLwE_xbSHV2B4L-4" target="MKO6IdKLwE_xbSHV2B4L-17">
          <mxGeometry relative="1" as="geometry" />
        </mxCell>
        <mxCell id="MKO6IdKLwE_xbSHV2B4L-21" style="edgeStyle=orthogonalEdgeStyle;rounded=0;orthogonalLoop=1;jettySize=auto;html=1;entryX=0.458;entryY=0.088;entryDx=0;entryDy=0;entryPerimeter=0;fillColor=#008a00;strokeColor=#005700;" edge="1" parent="1" source="MKO6IdKLwE_xbSHV2B4L-4" target="MKO6IdKLwE_xbSHV2B4L-15">
          <mxGeometry relative="1" as="geometry" />
        </mxCell>
        <mxCell id="MKO6IdKLwE_xbSHV2B4L-4" value="Movies App&lt;br&gt;&lt;br&gt;&lt;br&gt;&lt;br&gt;Allow users to view&amp;nbsp; trending movies and information about it from different platforms" style="whiteSpace=wrap;html=1;aspect=fixed;fillColor=#0050ef;strokeColor=#001DBC;fontColor=#ffffff;" vertex="1" parent="1">
          <mxGeometry x="340" y="-580" width="159" height="159" as="geometry" />
        </mxCell>
        <object label="" id="MKO6IdKLwE_xbSHV2B4L-14">
          <mxCell style="edgeStyle=orthogonalEdgeStyle;rounded=0;orthogonalLoop=1;jettySize=auto;html=1;fillColor=#e51400;strokeColor=#B20000;" edge="1" parent="1" source="MKO6IdKLwE_xbSHV2B4L-11" target="MKO6IdKLwE_xbSHV2B4L-4">
            <mxGeometry relative="1" as="geometry">
              <Array as="points">
                <mxPoint x="425" y="-645" />
                <mxPoint x="430" y="-645" />
              </Array>
            </mxGeometry>
          </mxCell>
        </object>
        <mxCell id="MKO6IdKLwE_xbSHV2B4L-11" value="User" style="shape=umlActor;verticalLabelPosition=bottom;verticalAlign=top;html=1;outlineConnect=0;fillColor=#76608a;strokeColor=#432D57;fontColor=#ffffff;" vertex="1" parent="1">
          <mxGeometry x="346" y="-890" width="158.25" height="180" as="geometry" />
        </mxCell>
        <mxCell id="MKO6IdKLwE_xbSHV2B4L-12" value="User will request moves info" style="text;html=1;strokeColor=#432D57;fillColor=#76608a;align=center;verticalAlign=middle;whiteSpace=wrap;rounded=0;fontColor=#ffffff;" vertex="1" parent="1">
          <mxGeometry x="382.63" y="-960" width="85" height="50" as="geometry" />
        </mxCell>
        <mxCell id="MKO6IdKLwE_xbSHV2B4L-15" value="MoviesDB" style="ellipse;shape=cloud;whiteSpace=wrap;html=1;fillColor=#1ba1e2;strokeColor=#006EAF;fontColor=#ffffff;" vertex="1" parent="1">
          <mxGeometry x="140" y="-380" width="120" height="80" as="geometry" />
        </mxCell>
        <mxCell id="MKO6IdKLwE_xbSHV2B4L-16" value="Omdb" style="ellipse;shape=cloud;whiteSpace=wrap;html=1;fillColor=#1ba1e2;strokeColor=#006EAF;fontColor=#ffffff;" vertex="1" parent="1">
          <mxGeometry x="330" y="-340" width="120" height="80" as="geometry" />
        </mxCell>
        <mxCell id="MKO6IdKLwE_xbSHV2B4L-17" value="NyTimes&lt;br&gt;" style="ellipse;shape=cloud;whiteSpace=wrap;html=1;fillColor=#1ba1e2;strokeColor=#006EAF;fontColor=#ffffff;" vertex="1" parent="1">
          <mxGeometry x="520" y="-340" width="120" height="80" as="geometry" />
        </mxCell>
        <mxCell id="MKO6IdKLwE_xbSHV2B4L-29" value="" style="edgeStyle=orthogonalEdgeStyle;rounded=0;orthogonalLoop=1;jettySize=auto;html=1;" edge="1" parent="1" source="MKO6IdKLwE_xbSHV2B4L-22" target="MKO6IdKLwE_xbSHV2B4L-28">
          <mxGeometry relative="1" as="geometry" />
        </mxCell>
        <mxCell id="MKO6IdKLwE_xbSHV2B4L-22" value="User" style="shape=umlActor;verticalLabelPosition=bottom;verticalAlign=top;html=1;outlineConnect=0;fillColor=#76608a;strokeColor=#432D57;fontColor=#ffffff;" vertex="1" parent="1">
          <mxGeometry x="280" y="40" width="80" height="80" as="geometry" />
        </mxCell>
        <mxCell id="MKO6IdKLwE_xbSHV2B4L-26" style="edgeStyle=orthogonalEdgeStyle;rounded=0;orthogonalLoop=1;jettySize=auto;html=1;" edge="1" parent="1" source="MKO6IdKLwE_xbSHV2B4L-25" target="MKO6IdKLwE_xbSHV2B4L-22">
          <mxGeometry relative="1" as="geometry" />
        </mxCell>
        <mxCell id="MKO6IdKLwE_xbSHV2B4L-25" value="Start" style="rounded=1;whiteSpace=wrap;html=1;" vertex="1" parent="1">
          <mxGeometry x="60" y="50" width="70" height="60" as="geometry" />
        </mxCell>
        <mxCell id="MKO6IdKLwE_xbSHV2B4L-31" value="" style="edgeStyle=orthogonalEdgeStyle;rounded=0;orthogonalLoop=1;jettySize=auto;html=1;" edge="1" parent="1" source="MKO6IdKLwE_xbSHV2B4L-28" target="MKO6IdKLwE_xbSHV2B4L-30">
          <mxGeometry relative="1" as="geometry" />
        </mxCell>
        <mxCell id="MKO6IdKLwE_xbSHV2B4L-34" value="" style="edgeStyle=orthogonalEdgeStyle;rounded=0;orthogonalLoop=1;jettySize=auto;html=1;" edge="1" parent="1" source="MKO6IdKLwE_xbSHV2B4L-28" target="MKO6IdKLwE_xbSHV2B4L-33">
          <mxGeometry relative="1" as="geometry" />
        </mxCell>
        <mxCell id="MKO6IdKLwE_xbSHV2B4L-28" value="is user signed" style="rhombus;whiteSpace=wrap;html=1;" vertex="1" parent="1">
          <mxGeometry x="425" y="30" width="95" height="90" as="geometry" />
        </mxCell>
        <mxCell id="MKO6IdKLwE_xbSHV2B4L-38" style="edgeStyle=orthogonalEdgeStyle;rounded=0;orthogonalLoop=1;jettySize=auto;html=1;exitX=1;exitY=0.5;exitDx=0;exitDy=0;entryX=1;entryY=0.75;entryDx=0;entryDy=0;" edge="1" parent="1" source="MKO6IdKLwE_xbSHV2B4L-30" target="MKO6IdKLwE_xbSHV2B4L-33">
          <mxGeometry relative="1" as="geometry" />
        </mxCell>
        <mxCell id="MKO6IdKLwE_xbSHV2B4L-42" style="edgeStyle=orthogonalEdgeStyle;rounded=0;orthogonalLoop=1;jettySize=auto;html=1;exitX=1;exitY=0.25;exitDx=0;exitDy=0;entryX=0.75;entryY=1;entryDx=0;entryDy=0;" edge="1" parent="1" source="MKO6IdKLwE_xbSHV2B4L-30" target="MKO6IdKLwE_xbSHV2B4L-40">
          <mxGeometry relative="1" as="geometry" />
        </mxCell>
        <mxCell id="MKO6IdKLwE_xbSHV2B4L-30" value="Sign in with Firebase" style="rounded=0;whiteSpace=wrap;html=1;" vertex="1" parent="1">
          <mxGeometry x="620" y="45" width="120" height="60" as="geometry" />
        </mxCell>
        <mxCell id="MKO6IdKLwE_xbSHV2B4L-32" value="No" style="text;html=1;strokeColor=none;fillColor=none;align=center;verticalAlign=middle;whiteSpace=wrap;rounded=0;" vertex="1" parent="1">
          <mxGeometry x="530" y="45" width="40" height="20" as="geometry" />
        </mxCell>
        <mxCell id="MKO6IdKLwE_xbSHV2B4L-48" style="edgeStyle=orthogonalEdgeStyle;rounded=0;orthogonalLoop=1;jettySize=auto;html=1;entryX=0.5;entryY=0;entryDx=0;entryDy=0;" edge="1" parent="1" source="MKO6IdKLwE_xbSHV2B4L-33" target="MKO6IdKLwE_xbSHV2B4L-45">
          <mxGeometry relative="1" as="geometry" />
        </mxCell>
        <mxCell id="MKO6IdKLwE_xbSHV2B4L-33" value="Show Trending horizentally" style="rounded=0;whiteSpace=wrap;html=1;fillColor=#fa6800;strokeColor=#C73500;fontColor=#ffffff;" vertex="1" parent="1">
          <mxGeometry x="412.5" y="180" width="120" height="60" as="geometry" />
        </mxCell>
        <mxCell id="MKO6IdKLwE_xbSHV2B4L-35" value="Yes" style="text;html=1;strokeColor=none;fillColor=none;align=center;verticalAlign=middle;whiteSpace=wrap;rounded=0;" vertex="1" parent="1">
          <mxGeometry x="490" y="140" width="40" height="20" as="geometry" />
        </mxCell>
        <mxCell id="MKO6IdKLwE_xbSHV2B4L-53" style="edgeStyle=orthogonalEdgeStyle;rounded=0;orthogonalLoop=1;jettySize=auto;html=1;entryX=0.75;entryY=0;entryDx=0;entryDy=0;" edge="1" parent="1" source="MKO6IdKLwE_xbSHV2B4L-40" target="MKO6IdKLwE_xbSHV2B4L-45">
          <mxGeometry relative="1" as="geometry" />
        </mxCell>
        <mxCell id="MKO6IdKLwE_xbSHV2B4L-40" value="Show&amp;nbsp; data in sql" style="rounded=0;whiteSpace=wrap;html=1;fillColor=#f0a30a;strokeColor=#BD7000;fontColor=#ffffff;" vertex="1" parent="1">
          <mxGeometry x="410" y="280" width="120" height="60" as="geometry" />
        </mxCell>
        <mxCell id="MKO6IdKLwE_xbSHV2B4L-47" value="" style="edgeStyle=orthogonalEdgeStyle;rounded=0;orthogonalLoop=1;jettySize=auto;html=1;" edge="1" parent="1" source="MKO6IdKLwE_xbSHV2B4L-45" target="MKO6IdKLwE_xbSHV2B4L-46">
          <mxGeometry relative="1" as="geometry" />
        </mxCell>
        <mxCell id="MKO6IdKLwE_xbSHV2B4L-45" value="Show Trending horizentally" style="rounded=1;whiteSpace=wrap;html=1;fillColor=#fa6800;strokeColor=#C73500;fontColor=#ffffff;" vertex="1" parent="1">
          <mxGeometry x="40" y="470" width="90" height="50" as="geometry" />
        </mxCell>
        <mxCell id="MKO6IdKLwE_xbSHV2B4L-50" value="" style="edgeStyle=orthogonalEdgeStyle;rounded=0;orthogonalLoop=1;jettySize=auto;html=1;" edge="1" parent="1" source="MKO6IdKLwE_xbSHV2B4L-46" target="MKO6IdKLwE_xbSHV2B4L-49">
          <mxGeometry relative="1" as="geometry" />
        </mxCell>
        <mxCell id="MKO6IdKLwE_xbSHV2B4L-46" value="Build Fragment of type Trending(3)" style="rounded=0;whiteSpace=wrap;html=1;gradientColor=#b3b3b3;fillColor=#f5f5f5;strokeColor=#666666;" vertex="1" parent="1">
          <mxGeometry x="200" y="465" width="120" height="60" as="geometry" />
        </mxCell>
        <mxCell id="MKO6IdKLwE_xbSHV2B4L-52" value="" style="edgeStyle=orthogonalEdgeStyle;rounded=0;orthogonalLoop=1;jettySize=auto;html=1;" edge="1" parent="1" source="MKO6IdKLwE_xbSHV2B4L-49" target="MKO6IdKLwE_xbSHV2B4L-51">
          <mxGeometry relative="1" as="geometry" />
        </mxCell>
        <mxCell id="MKO6IdKLwE_xbSHV2B4L-49" value="Build horizontal recyclerView" style="whiteSpace=wrap;html=1;rounded=0;strokeColor=#666666;fillColor=#f5f5f5;gradientColor=#b3b3b3;" vertex="1" parent="1">
          <mxGeometry x="400" y="465" width="120" height="60" as="geometry" />
        </mxCell>
        <mxCell id="MKO6IdKLwE_xbSHV2B4L-55" value="" style="edgeStyle=orthogonalEdgeStyle;rounded=0;orthogonalLoop=1;jettySize=auto;html=1;" edge="1" parent="1" source="MKO6IdKLwE_xbSHV2B4L-51" target="MKO6IdKLwE_xbSHV2B4L-54">
          <mxGeometry relative="1" as="geometry" />
        </mxCell>
        <mxCell id="MKO6IdKLwE_xbSHV2B4L-51" value="create object for adapter recyclerView" style="whiteSpace=wrap;html=1;rounded=0;strokeColor=#666666;fillColor=#f5f5f5;gradientColor=#b3b3b3;" vertex="1" parent="1">
          <mxGeometry x="600" y="465" width="120" height="60" as="geometry" />
        </mxCell>
        <mxCell id="MKO6IdKLwE_xbSHV2B4L-57" value="" style="edgeStyle=orthogonalEdgeStyle;rounded=0;orthogonalLoop=1;jettySize=auto;html=1;" edge="1" parent="1" source="MKO6IdKLwE_xbSHV2B4L-54" target="MKO6IdKLwE_xbSHV2B4L-56">
          <mxGeometry relative="1" as="geometry" />
        </mxCell>
        <mxCell id="MKO6IdKLwE_xbSHV2B4L-62" value="" style="edgeStyle=orthogonalEdgeStyle;rounded=0;orthogonalLoop=1;jettySize=auto;html=1;" edge="1" parent="1" source="MKO6IdKLwE_xbSHV2B4L-54" target="MKO6IdKLwE_xbSHV2B4L-61">
          <mxGeometry relative="1" as="geometry" />
        </mxCell>
        <mxCell id="MKO6IdKLwE_xbSHV2B4L-54" value="type" style="rhombus;whiteSpace=wrap;html=1;rounded=0;strokeColor=#666666;fillColor=#f5f5f5;gradientColor=#b3b3b3;" vertex="1" parent="1">
          <mxGeometry x="620" y="595" width="80" height="80" as="geometry" />
        </mxCell>
        <mxCell id="MKO6IdKLwE_xbSHV2B4L-60" value="" style="edgeStyle=orthogonalEdgeStyle;rounded=0;orthogonalLoop=1;jettySize=auto;html=1;" edge="1" parent="1" source="MKO6IdKLwE_xbSHV2B4L-56" target="MKO6IdKLwE_xbSHV2B4L-59">
          <mxGeometry relative="1" as="geometry" />
        </mxCell>
        <mxCell id="MKO6IdKLwE_xbSHV2B4L-74" style="edgeStyle=orthogonalEdgeStyle;rounded=0;orthogonalLoop=1;jettySize=auto;html=1;exitX=0;exitY=1;exitDx=0;exitDy=0;entryX=0.5;entryY=0;entryDx=0;entryDy=0;" edge="1" parent="1" source="MKO6IdKLwE_xbSHV2B4L-56" target="MKO6IdKLwE_xbSHV2B4L-70">
          <mxGeometry relative="1" as="geometry" />
        </mxCell>
        <mxCell id="MKO6IdKLwE_xbSHV2B4L-56" value="create object of&amp;nbsp;&lt;br&gt;recylclerView model" style="whiteSpace=wrap;html=1;rounded=0;strokeColor=#996185;fillColor=#e6d0de;gradientColor=#d5739d;" vertex="1" parent="1">
          <mxGeometry x="440" y="605" width="120" height="60" as="geometry" />
        </mxCell>
        <mxCell id="MKO6IdKLwE_xbSHV2B4L-58" value="Trending" style="text;html=1;strokeColor=none;fillColor=none;align=center;verticalAlign=middle;whiteSpace=wrap;rounded=0;" vertex="1" parent="1">
          <mxGeometry x="570" y="610" width="40" height="20" as="geometry" />
        </mxCell>
        <mxCell id="MKO6IdKLwE_xbSHV2B4L-59" value="submit list to adapter" style="whiteSpace=wrap;html=1;rounded=0;strokeColor=#666666;fillColor=#f5f5f5;gradientColor=#b3b3b3;" vertex="1" parent="1">
          <mxGeometry x="240" y="605" width="120" height="60" as="geometry" />
        </mxCell>
        <mxCell id="MKO6IdKLwE_xbSHV2B4L-66" value="" style="edgeStyle=orthogonalEdgeStyle;rounded=0;orthogonalLoop=1;jettySize=auto;html=1;" edge="1" parent="1" source="MKO6IdKLwE_xbSHV2B4L-61" target="MKO6IdKLwE_xbSHV2B4L-65">
          <mxGeometry relative="1" as="geometry" />
        </mxCell>
        <mxCell id="MKO6IdKLwE_xbSHV2B4L-61" value="create object of view_model_favorite" style="whiteSpace=wrap;html=1;rounded=0;strokeColor=#82b366;fillColor=#d5e8d4;gradientColor=#97d077;" vertex="1" parent="1">
          <mxGeometry x="720" y="700" width="120" height="60" as="geometry" />
        </mxCell>
        <mxCell id="MKO6IdKLwE_xbSHV2B4L-63" value="Else {I want to watch,watched,favorite}" style="text;html=1;strokeColor=none;fillColor=none;align=center;verticalAlign=middle;whiteSpace=wrap;rounded=0;" vertex="1" parent="1">
          <mxGeometry x="670" y="560" width="150" height="70" as="geometry" />
        </mxCell>
        <mxCell id="MKO6IdKLwE_xbSHV2B4L-68" value="" style="edgeStyle=orthogonalEdgeStyle;rounded=0;orthogonalLoop=1;jettySize=auto;html=1;" edge="1" parent="1" source="MKO6IdKLwE_xbSHV2B4L-65" target="MKO6IdKLwE_xbSHV2B4L-67">
          <mxGeometry relative="1" as="geometry" />
        </mxCell>
        <mxCell id="MKO6IdKLwE_xbSHV2B4L-65" value="getData" style="whiteSpace=wrap;html=1;rounded=0;strokeColor=#666666;fillColor=#f5f5f5;gradientColor=#b3b3b3;" vertex="1" parent="1">
          <mxGeometry x="710" y="810" width="120" height="60" as="geometry" />
        </mxCell>
        <mxCell id="MKO6IdKLwE_xbSHV2B4L-67" value="Submit data to adapter" style="whiteSpace=wrap;html=1;rounded=0;strokeColor=#666666;fillColor=#f5f5f5;gradientColor=#b3b3b3;" vertex="1" parent="1">
          <mxGeometry x="710" y="950" width="120" height="60" as="geometry" />
        </mxCell>
        <mxCell id="MKO6IdKLwE_xbSHV2B4L-76" style="edgeStyle=orthogonalEdgeStyle;rounded=0;orthogonalLoop=1;jettySize=auto;html=1;entryX=0.5;entryY=1;entryDx=0;entryDy=0;" edge="1" parent="1" source="MKO6IdKLwE_xbSHV2B4L-70" target="MKO6IdKLwE_xbSHV2B4L-75">
          <mxGeometry relative="1" as="geometry" />
        </mxCell>
        <mxCell id="MKO6IdKLwE_xbSHV2B4L-80" value="" style="edgeStyle=orthogonalEdgeStyle;rounded=0;orthogonalLoop=1;jettySize=auto;html=1;" edge="1" parent="1" source="MKO6IdKLwE_xbSHV2B4L-70" target="MKO6IdKLwE_xbSHV2B4L-79">
          <mxGeometry relative="1" as="geometry" />
        </mxCell>
        <mxCell id="MKO6IdKLwE_xbSHV2B4L-70" value="Create Object of recyclerView model" style="rounded=1;whiteSpace=wrap;html=1;gradientColor=#d5739d;fillColor=#e6d0de;strokeColor=#996185;" vertex="1" parent="1">
          <mxGeometry x="10" y="1090" width="120" height="60" as="geometry" />
        </mxCell>
        <mxCell id="MKO6IdKLwE_xbSHV2B4L-75" value="It has MovieList and MovieListFilte" style="text;html=1;strokeColor=none;fillColor=none;align=center;verticalAlign=middle;whiteSpace=wrap;rounded=0;" vertex="1" parent="1">
          <mxGeometry x="90" y="1000" width="120" height="60" as="geometry" />
        </mxCell>
        <mxCell id="MKO6IdKLwE_xbSHV2B4L-87" value="" style="edgeStyle=orthogonalEdgeStyle;rounded=0;orthogonalLoop=1;jettySize=auto;html=1;" edge="1" parent="1" source="MKO6IdKLwE_xbSHV2B4L-79" target="MKO6IdKLwE_xbSHV2B4L-86">
          <mxGeometry relative="1" as="geometry" />
        </mxCell>
        <mxCell id="MKO6IdKLwE_xbSHV2B4L-79" value="**There are 2 state; one require state{horizotal or vertical}, type{Trending or for kids}**&lt;br&gt;&lt;br&gt;**and another for filteration require filter options**" style="rounded=1;whiteSpace=wrap;html=1;gradientColor=#b3b3b3;fillColor=#f5f5f5;strokeColor=#666666;" vertex="1" parent="1">
          <mxGeometry x="210" y="1090" width="170" height="100" as="geometry" />
        </mxCell>
        <mxCell id="MKO6IdKLwE_xbSHV2B4L-89" value="" style="edgeStyle=orthogonalEdgeStyle;rounded=0;orthogonalLoop=1;jettySize=auto;html=1;" edge="1" parent="1" source="MKO6IdKLwE_xbSHV2B4L-86" target="MKO6IdKLwE_xbSHV2B4L-88">
          <mxGeometry relative="1" as="geometry" />
        </mxCell>
        <mxCell id="MKO6IdKLwE_xbSHV2B4L-94" value="" style="edgeStyle=orthogonalEdgeStyle;rounded=0;orthogonalLoop=1;jettySize=auto;html=1;" edge="1" parent="1" source="MKO6IdKLwE_xbSHV2B4L-86" target="MKO6IdKLwE_xbSHV2B4L-93">
          <mxGeometry relative="1" as="geometry" />
        </mxCell>
        <mxCell id="MKO6IdKLwE_xbSHV2B4L-86" value="What constructor?" style="rhombus;whiteSpace=wrap;html=1;" vertex="1" parent="1">
          <mxGeometry x="425" y="1100" width="97.5" height="100" as="geometry" />
        </mxCell>
        <mxCell id="MKO6IdKLwE_xbSHV2B4L-92" value="" style="edgeStyle=orthogonalEdgeStyle;rounded=0;orthogonalLoop=1;jettySize=auto;html=1;" edge="1" parent="1" source="MKO6IdKLwE_xbSHV2B4L-88" target="MKO6IdKLwE_xbSHV2B4L-91">
          <mxGeometry relative="1" as="geometry" />
        </mxCell>
        <mxCell id="MKO6IdKLwE_xbSHV2B4L-126" style="edgeStyle=orthogonalEdgeStyle;rounded=0;orthogonalLoop=1;jettySize=auto;html=1;exitX=0.25;exitY=1;exitDx=0;exitDy=0;entryX=0.5;entryY=0;entryDx=0;entryDy=0;" edge="1" parent="1" source="MKO6IdKLwE_xbSHV2B4L-88" target="MKO6IdKLwE_xbSHV2B4L-97">
          <mxGeometry relative="1" as="geometry" />
        </mxCell>
        <mxCell id="MKO6IdKLwE_xbSHV2B4L-88" value="Create Object of&amp;nbsp;&lt;br&gt;MovieDataSourceFactory" style="whiteSpace=wrap;html=1;gradientColor=#ffd966;fillColor=#fff2cc;strokeColor=#d6b656;" vertex="1" parent="1">
          <mxGeometry x="591.25" y="1120" width="138.75" height="70" as="geometry" />
        </mxCell>
        <mxCell id="MKO6IdKLwE_xbSHV2B4L-90" value="First" style="text;html=1;strokeColor=none;fillColor=none;align=center;verticalAlign=middle;whiteSpace=wrap;rounded=0;" vertex="1" parent="1">
          <mxGeometry x="530" y="1120" width="40" height="20" as="geometry" />
        </mxCell>
        <mxCell id="MKO6IdKLwE_xbSHV2B4L-91" value="Submit it to movie List" style="whiteSpace=wrap;html=1;" vertex="1" parent="1">
          <mxGeometry x="670" y="1230" width="138.75" height="70" as="geometry" />
        </mxCell>
        <mxCell id="MKO6IdKLwE_xbSHV2B4L-96" value="" style="edgeStyle=orthogonalEdgeStyle;rounded=0;orthogonalLoop=1;jettySize=auto;html=1;" edge="1" parent="1" source="MKO6IdKLwE_xbSHV2B4L-93" target="MKO6IdKLwE_xbSHV2B4L-95">
          <mxGeometry relative="1" as="geometry" />
        </mxCell>
        <mxCell id="MKO6IdKLwE_xbSHV2B4L-127" style="edgeStyle=orthogonalEdgeStyle;rounded=0;orthogonalLoop=1;jettySize=auto;html=1;entryX=0.25;entryY=0;entryDx=0;entryDy=0;" edge="1" parent="1" source="MKO6IdKLwE_xbSHV2B4L-93" target="MKO6IdKLwE_xbSHV2B4L-97">
          <mxGeometry relative="1" as="geometry" />
        </mxCell>
        <mxCell id="MKO6IdKLwE_xbSHV2B4L-93" value="Create Object of&amp;nbsp;&lt;br&gt;MovieDataSourceFilterFactory" style="whiteSpace=wrap;html=1;gradientColor=#ffd966;fillColor=#fff2cc;strokeColor=#d6b656;" vertex="1" parent="1">
          <mxGeometry x="385.63" y="1230" width="176.25" height="80" as="geometry" />
        </mxCell>
        <mxCell id="MKO6IdKLwE_xbSHV2B4L-95" value="Submit it to movie ListFileter" style="whiteSpace=wrap;html=1;" vertex="1" parent="1">
          <mxGeometry x="404.38" y="1350" width="138.75" height="70" as="geometry" />
        </mxCell>
        <mxCell id="MKO6IdKLwE_xbSHV2B4L-101" value="" style="edgeStyle=orthogonalEdgeStyle;rounded=0;orthogonalLoop=1;jettySize=auto;html=1;" edge="1" parent="1" source="MKO6IdKLwE_xbSHV2B4L-97" target="MKO6IdKLwE_xbSHV2B4L-100">
          <mxGeometry relative="1" as="geometry" />
        </mxCell>
        <mxCell id="MKO6IdKLwE_xbSHV2B4L-97" value="Create Object of&amp;nbsp;&lt;br&gt;MovieDataSourceFactory&lt;br&gt;For paged list, it has mutable live data and require state and type" style="whiteSpace=wrap;html=1;gradientColor=#ffd966;fillColor=#fff2cc;strokeColor=#d6b656;" vertex="1" parent="1">
          <mxGeometry x="10" y="1490" width="176.25" height="80" as="geometry" />
        </mxCell>
        <mxCell id="MKO6IdKLwE_xbSHV2B4L-103" value="" style="edgeStyle=orthogonalEdgeStyle;rounded=0;orthogonalLoop=1;jettySize=auto;html=1;" edge="1" parent="1" source="MKO6IdKLwE_xbSHV2B4L-100" target="MKO6IdKLwE_xbSHV2B4L-102">
          <mxGeometry relative="1" as="geometry" />
        </mxCell>
        <mxCell id="MKO6IdKLwE_xbSHV2B4L-106" style="edgeStyle=orthogonalEdgeStyle;rounded=0;orthogonalLoop=1;jettySize=auto;html=1;exitX=0;exitY=1;exitDx=0;exitDy=0;entryX=0.43;entryY=0;entryDx=0;entryDy=0;entryPerimeter=0;" edge="1" parent="1" source="MKO6IdKLwE_xbSHV2B4L-100" target="MKO6IdKLwE_xbSHV2B4L-104">
          <mxGeometry relative="1" as="geometry" />
        </mxCell>
        <mxCell id="MKO6IdKLwE_xbSHV2B4L-100" value="in Create method:&amp;nbsp;&lt;br&gt;it create object of MovieDatSource , and pass state and type" style="whiteSpace=wrap;html=1;strokeColor=#36393d;fillColor=#ffcccc;" vertex="1" parent="1">
          <mxGeometry x="294.38" y="1500" width="125.63" height="80" as="geometry" />
        </mxCell>
        <mxCell id="MKO6IdKLwE_xbSHV2B4L-102" value="post value to mutable live date it gets from Movie data source" style="whiteSpace=wrap;html=1;" vertex="1" parent="1">
          <mxGeometry x="502.82500000000005" y="1510" width="120" height="60" as="geometry" />
        </mxCell>
        <mxCell id="MKO6IdKLwE_xbSHV2B4L-109" value="" style="edgeStyle=orthogonalEdgeStyle;rounded=0;orthogonalLoop=1;jettySize=auto;html=1;" edge="1" parent="1" source="MKO6IdKLwE_xbSHV2B4L-104" target="MKO6IdKLwE_xbSHV2B4L-108">
          <mxGeometry relative="1" as="geometry" />
        </mxCell>
        <mxCell id="MKO6IdKLwE_xbSHV2B4L-104" value="in Create method:&amp;nbsp;&lt;br&gt;it create object of MovieDatSource , and pass state and type" style="whiteSpace=wrap;html=1;strokeColor=#36393d;fillColor=#ffcccc;" vertex="1" parent="1">
          <mxGeometry x="40" y="1660" width="125.63" height="80" as="geometry" />
        </mxCell>
        <mxCell id="MKO6IdKLwE_xbSHV2B4L-107" value="It&#39;s pagedKeyDataSource" style="text;html=1;strokeColor=none;fillColor=none;align=center;verticalAlign=middle;whiteSpace=wrap;rounded=0;" vertex="1" parent="1">
          <mxGeometry y="1630" width="184" height="10" as="geometry" />
        </mxCell>
        <mxCell id="MKO6IdKLwE_xbSHV2B4L-111" value="" style="edgeStyle=orthogonalEdgeStyle;rounded=0;orthogonalLoop=1;jettySize=auto;html=1;" edge="1" parent="1" source="MKO6IdKLwE_xbSHV2B4L-108" target="MKO6IdKLwE_xbSHV2B4L-110">
          <mxGeometry relative="1" as="geometry" />
        </mxCell>
        <mxCell id="MKO6IdKLwE_xbSHV2B4L-108" value="it uses 2 different function to load data overloaded&amp;nbsp;&lt;br&gt;first for load initial&lt;br&gt;second for load before and after" style="whiteSpace=wrap;html=1;strokeColor=#36393d;fillColor=#ffcccc;" vertex="1" parent="1">
          <mxGeometry x="248.45" y="1670" width="141.56" height="80" as="geometry" />
        </mxCell>
        <mxCell id="MKO6IdKLwE_xbSHV2B4L-113" value="" style="edgeStyle=orthogonalEdgeStyle;rounded=0;orthogonalLoop=1;jettySize=auto;html=1;" edge="1" parent="1" source="MKO6IdKLwE_xbSHV2B4L-110" target="MKO6IdKLwE_xbSHV2B4L-112">
          <mxGeometry relative="1" as="geometry" />
        </mxCell>
        <mxCell id="MKO6IdKLwE_xbSHV2B4L-110" value="Current_State_section" style="rhombus;whiteSpace=wrap;html=1;strokeColor=#36393d;fillColor=#ffcccc;" vertex="1" parent="1">
          <mxGeometry x="500.79" y="1670" width="139.21" height="100" as="geometry" />
        </mxCell>
        <mxCell id="MKO6IdKLwE_xbSHV2B4L-121" value="" style="edgeStyle=orthogonalEdgeStyle;rounded=0;orthogonalLoop=1;jettySize=auto;html=1;" edge="1" parent="1" source="MKO6IdKLwE_xbSHV2B4L-112" target="MKO6IdKLwE_xbSHV2B4L-120">
          <mxGeometry relative="1" as="geometry" />
        </mxCell>
        <mxCell id="MKO6IdKLwE_xbSHV2B4L-112" value="calling Retrofit&lt;br&gt;you must call clearClient() as it deletes the last one setting it to null." style="whiteSpace=wrap;html=1;strokeColor=#36393d;fillColor=#ffcccc;" vertex="1" parent="1">
          <mxGeometry x="510.4" y="1870" width="129.61" height="70" as="geometry" />
        </mxCell>
        <mxCell id="MKO6IdKLwE_xbSHV2B4L-114" value="Whaterver sections it hadles it and request retrofit" style="text;html=1;strokeColor=none;fillColor=none;align=center;verticalAlign=middle;whiteSpace=wrap;rounded=0;" vertex="1" parent="1">
          <mxGeometry x="590" y="1780" width="130" height="50" as="geometry" />
        </mxCell>
        <mxCell id="MKO6IdKLwE_xbSHV2B4L-124" value="" style="edgeStyle=orthogonalEdgeStyle;rounded=0;orthogonalLoop=1;jettySize=auto;html=1;" edge="1" parent="1" source="MKO6IdKLwE_xbSHV2B4L-120" target="MKO6IdKLwE_xbSHV2B4L-123">
          <mxGeometry relative="1" as="geometry" />
        </mxCell>
        <mxCell id="MKO6IdKLwE_xbSHV2B4L-120" value="parser it to json" style="whiteSpace=wrap;html=1;strokeColor=#36393d;fillColor=#ffcccc;" vertex="1" parent="1">
          <mxGeometry x="305.59499999999997" y="1875" width="120" height="60" as="geometry" />
        </mxCell>
        <mxCell id="MKO6IdKLwE_xbSHV2B4L-123" value="submit it to callback" style="whiteSpace=wrap;html=1;strokeColor=#36393d;fillColor=#ffcccc;" vertex="1" parent="1">
          <mxGeometry x="105.59499999999997" y="1875" width="120" height="60" as="geometry" />
        </mxCell>
        <mxCell id="MKO6IdKLwE_xbSHV2B4L-128" value="it does the same things but with filter classess and filter them in parsen json" style="text;html=1;strokeColor=none;fillColor=none;align=center;verticalAlign=middle;whiteSpace=wrap;rounded=0;" vertex="1" parent="1">
          <mxGeometry x="40" y="1250" width="250" as="geometry" />
        </mxCell>
        <mxCell id="MKO6IdKLwE_xbSHV2B4L-132" value="" style="edgeStyle=orthogonalEdgeStyle;rounded=0;orthogonalLoop=1;jettySize=auto;html=1;" edge="1" parent="1" source="MKO6IdKLwE_xbSHV2B4L-130" target="MKO6IdKLwE_xbSHV2B4L-131">
          <mxGeometry relative="1" as="geometry" />
        </mxCell>
        <mxCell id="MKO6IdKLwE_xbSHV2B4L-143" style="edgeStyle=orthogonalEdgeStyle;rounded=0;orthogonalLoop=1;jettySize=auto;html=1;entryX=0.5;entryY=0.35;entryDx=0;entryDy=0;entryPerimeter=0;" edge="1" parent="1" source="MKO6IdKLwE_xbSHV2B4L-130" target="MKO6IdKLwE_xbSHV2B4L-139">
          <mxGeometry relative="1" as="geometry" />
        </mxCell>
        <mxCell id="MKO6IdKLwE_xbSHV2B4L-130" value="create object of view_model_favorite" style="whiteSpace=wrap;html=1;rounded=0;strokeColor=#82b366;fillColor=#d5e8d4;gradientColor=#97d077;" vertex="1" parent="1">
          <mxGeometry x="10" y="2040" width="120" height="60" as="geometry" />
        </mxCell>
        <mxCell id="MKO6IdKLwE_xbSHV2B4L-134" value="" style="edgeStyle=orthogonalEdgeStyle;rounded=0;orthogonalLoop=1;jettySize=auto;html=1;" edge="1" parent="1" source="MKO6IdKLwE_xbSHV2B4L-131" target="MKO6IdKLwE_xbSHV2B4L-133">
          <mxGeometry relative="1" as="geometry" />
        </mxCell>
        <mxCell id="MKO6IdKLwE_xbSHV2B4L-131" value="Create Object of&amp;nbsp;&lt;br&gt;view_model_favorite" style="whiteSpace=wrap;html=1;rounded=0;strokeColor=#82b366;fillColor=#d5e8d4;gradientColor=#97d077;" vertex="1" parent="1">
          <mxGeometry x="210" y="2040" width="120" height="60" as="geometry" />
        </mxCell>
        <mxCell id="MKO6IdKLwE_xbSHV2B4L-136" value="" style="edgeStyle=orthogonalEdgeStyle;rounded=0;orthogonalLoop=1;jettySize=auto;html=1;" edge="1" parent="1" source="MKO6IdKLwE_xbSHV2B4L-133" target="MKO6IdKLwE_xbSHV2B4L-135">
          <mxGeometry relative="1" as="geometry" />
        </mxCell>
        <mxCell id="MKO6IdKLwE_xbSHV2B4L-133" value="get data wether it&#39;s I want to watch or watched or favorite" style="whiteSpace=wrap;html=1;rounded=0;strokeColor=#82b366;fillColor=#d5e8d4;gradientColor=#97d077;" vertex="1" parent="1">
          <mxGeometry x="410" y="2040" width="120" height="60" as="geometry" />
        </mxCell>
        <mxCell id="MKO6IdKLwE_xbSHV2B4L-138" value="" style="edgeStyle=orthogonalEdgeStyle;rounded=0;orthogonalLoop=1;jettySize=auto;html=1;" edge="1" parent="1" source="MKO6IdKLwE_xbSHV2B4L-135" target="MKO6IdKLwE_xbSHV2B4L-137">
          <mxGeometry relative="1" as="geometry" />
        </mxCell>
        <mxCell id="MKO6IdKLwE_xbSHV2B4L-135" value="observe date" style="whiteSpace=wrap;html=1;rounded=0;strokeColor=#82b366;fillColor=#d5e8d4;gradientColor=#97d077;" vertex="1" parent="1">
          <mxGeometry x="610" y="2040" width="120" height="60" as="geometry" />
        </mxCell>
        <mxCell id="MKO6IdKLwE_xbSHV2B4L-137" value="Submit data to adapter" style="whiteSpace=wrap;html=1;rounded=0;strokeColor=#82b366;fillColor=#d5e8d4;gradientColor=#97d077;" vertex="1" parent="1">
          <mxGeometry x="610" y="2160" width="120" height="60" as="geometry" />
        </mxCell>
        <mxCell id="MKO6IdKLwE_xbSHV2B4L-144" style="edgeStyle=orthogonalEdgeStyle;rounded=0;orthogonalLoop=1;jettySize=auto;html=1;" edge="1" parent="1" source="MKO6IdKLwE_xbSHV2B4L-139" target="MKO6IdKLwE_xbSHV2B4L-141">
          <mxGeometry relative="1" as="geometry" />
        </mxCell>
        <mxCell id="MKO6IdKLwE_xbSHV2B4L-139" value="DB" style="shape=cylinder2;whiteSpace=wrap;html=1;boundedLbl=1;backgroundOutline=1;size=15;" vertex="1" parent="1">
          <mxGeometry x="55" y="2290" width="60" height="80" as="geometry" />
        </mxCell>
        <mxCell id="MKO6IdKLwE_xbSHV2B4L-140" value="Movie_1" style="swimlane;childLayout=stackLayout;horizontal=1;startSize=30;horizontalStack=0;rounded=1;fontSize=14;fontStyle=0;strokeWidth=2;resizeParent=0;resizeLast=1;shadow=0;dashed=0;align=center;" vertex="1" parent="1">
          <mxGeometry x="240" y="2280" width="300" height="200" as="geometry" />
        </mxCell>
        <mxCell id="MKO6IdKLwE_xbSHV2B4L-141" value="idFav: for primary key&#xa;id: of the movie itself from movie db&#xa;vote_average&#xa;title&#xa;release_date&#xa;poseter_path&#xa;timerOfInsertion: I use ti sort the movies &#xa;//type of save&#xa;favorite&#xa;IwantToWatch&#xa;watched&#xa;" style="align=left;strokeColor=none;fillColor=none;spacingLeft=4;fontSize=12;verticalAlign=top;resizable=0;rotatable=0;part=1;" vertex="1" parent="MKO6IdKLwE_xbSHV2B4L-140">
          <mxGeometry y="30" width="300" height="170" as="geometry" />
        </mxCell>
        <mxCell id="MKO6IdKLwE_xbSHV2B4L-147" value="" style="edgeStyle=orthogonalEdgeStyle;rounded=0;orthogonalLoop=1;jettySize=auto;html=1;" edge="1" parent="1" source="MKO6IdKLwE_xbSHV2B4L-145" target="MKO6IdKLwE_xbSHV2B4L-146">
          <mxGeometry relative="1" as="geometry" />
        </mxCell>
        <mxCell id="MKO6IdKLwE_xbSHV2B4L-151" style="edgeStyle=orthogonalEdgeStyle;rounded=0;orthogonalLoop=1;jettySize=auto;html=1;exitX=1;exitY=1;exitDx=0;exitDy=0;entryX=0;entryY=0.75;entryDx=0;entryDy=0;" edge="1" parent="1" source="MKO6IdKLwE_xbSHV2B4L-145" target="MKO6IdKLwE_xbSHV2B4L-150">
          <mxGeometry relative="1" as="geometry" />
        </mxCell>
        <mxCell id="MKO6IdKLwE_xbSHV2B4L-153" style="edgeStyle=orthogonalEdgeStyle;rounded=0;orthogonalLoop=1;jettySize=auto;html=1;exitX=0.75;exitY=1;exitDx=0;exitDy=0;entryX=0;entryY=0.75;entryDx=0;entryDy=0;" edge="1" parent="1" source="MKO6IdKLwE_xbSHV2B4L-145" target="MKO6IdKLwE_xbSHV2B4L-152">
          <mxGeometry relative="1" as="geometry" />
        </mxCell>
        <mxCell id="MKO6IdKLwE_xbSHV2B4L-145" value="Request specific Movie" style="rounded=1;whiteSpace=wrap;html=1;" vertex="1" parent="1">
          <mxGeometry x="31.060000000000002" y="2560" width="121.87" height="60" as="geometry" />
        </mxCell>
        <mxCell id="MKO6IdKLwE_xbSHV2B4L-146" value="I use Movie_1 for info shown in main activity&lt;br&gt;BUT&lt;br&gt;Movie_2 has more info like genres,overview, imdbid&lt;br&gt;both get data from&amp;nbsp;themoviedb" style="whiteSpace=wrap;html=1;rounded=1;" vertex="1" parent="1">
          <mxGeometry x="240.94" y="2550" width="219.07" height="140" as="geometry" />
        </mxCell>
        <mxCell id="MKO6IdKLwE_xbSHV2B4L-150" value="Movie Omdb: it has more info than Movie_2&lt;br&gt;like Country, Awards, Box office...&lt;br&gt;" style="rounded=0;whiteSpace=wrap;html=1;" vertex="1" parent="1">
          <mxGeometry x="280" y="2750" width="160" height="100" as="geometry" />
        </mxCell>
        <mxCell id="MKO6IdKLwE_xbSHV2B4L-152" value="Article&amp;nbsp;&lt;br&gt;I request data from NyTimes&lt;br&gt;it has url,suggestedLinkText&lt;br&gt;summaryTexty" style="rounded=0;whiteSpace=wrap;html=1;" vertex="1" parent="1">
          <mxGeometry x="280" y="2890" width="180" height="90" as="geometry" />
        </mxCell>
        <mxCell id="MKO6IdKLwE_xbSHV2B4L-156" value="" style="edgeStyle=orthogonalEdgeStyle;rounded=0;orthogonalLoop=1;jettySize=auto;html=1;" edge="1" parent="1" source="MKO6IdKLwE_xbSHV2B4L-154" target="MKO6IdKLwE_xbSHV2B4L-155">
          <mxGeometry relative="1" as="geometry" />
        </mxCell>
        <mxCell id="MKO6IdKLwE_xbSHV2B4L-154" value="Request specific Movie" style="rounded=1;whiteSpace=wrap;html=1;fillColor=#ffcccc;strokeColor=#36393d;" vertex="1" parent="1">
          <mxGeometry x="18.130000000000003" y="3020" width="121.87" height="60" as="geometry" />
        </mxCell>
        <mxCell id="MKO6IdKLwE_xbSHV2B4L-160" value="" style="edgeStyle=orthogonalEdgeStyle;rounded=0;orthogonalLoop=1;jettySize=auto;html=1;" edge="1" parent="1" source="MKO6IdKLwE_xbSHV2B4L-155" target="MKO6IdKLwE_xbSHV2B4L-159">
          <mxGeometry relative="1" as="geometry" />
        </mxCell>
        <mxCell id="MKO6IdKLwE_xbSHV2B4L-155" value="Movie_detail_activity&lt;br&gt;" style="whiteSpace=wrap;html=1;rounded=1;strokeColor=#36393d;fillColor=#ffcccc;" vertex="1" parent="1">
          <mxGeometry x="220.935" y="3020" width="120" height="60" as="geometry" />
        </mxCell>
        <mxCell id="MKO6IdKLwE_xbSHV2B4L-157" value="Create Object of&amp;nbsp;&lt;br&gt;view_mode_Movie2" style="whiteSpace=wrap;html=1;rounded=1;strokeColor=#36393d;fillColor=#ffff88;" vertex="1" parent="1">
          <mxGeometry x="595.005" y="3020" width="120" height="60" as="geometry" />
        </mxCell>
        <mxCell id="MKO6IdKLwE_xbSHV2B4L-163" style="edgeStyle=orthogonalEdgeStyle;rounded=0;orthogonalLoop=1;jettySize=auto;html=1;entryX=0;entryY=0.5;entryDx=0;entryDy=0;" edge="1" parent="1" source="MKO6IdKLwE_xbSHV2B4L-159" target="MKO6IdKLwE_xbSHV2B4L-157">
          <mxGeometry relative="1" as="geometry" />
        </mxCell>
        <mxCell id="MKO6IdKLwE_xbSHV2B4L-159" value="get date sent from last activity like title&lt;br&gt;and load the image and backgroud" style="whiteSpace=wrap;html=1;rounded=1;strokeColor=#36393d;fillColor=#ffcccc;" vertex="1" parent="1">
          <mxGeometry x="420.935" y="3020" width="120" height="60" as="geometry" />
        </mxCell>
        <mxCell id="MKO6IdKLwE_xbSHV2B4L-166" value="" style="edgeStyle=orthogonalEdgeStyle;rounded=0;orthogonalLoop=1;jettySize=auto;html=1;" edge="1" parent="1" source="MKO6IdKLwE_xbSHV2B4L-164" target="MKO6IdKLwE_xbSHV2B4L-165">
          <mxGeometry relative="1" as="geometry" />
        </mxCell>
        <mxCell id="MKO6IdKLwE_xbSHV2B4L-168" style="edgeStyle=orthogonalEdgeStyle;rounded=0;orthogonalLoop=1;jettySize=auto;html=1;exitX=1;exitY=1;exitDx=0;exitDy=0;" edge="1" parent="1" source="MKO6IdKLwE_xbSHV2B4L-164">
          <mxGeometry relative="1" as="geometry">
            <mxPoint x="200" y="3240" as="targetPoint" />
          </mxGeometry>
        </mxCell>
        <mxCell id="MKO6IdKLwE_xbSHV2B4L-170" style="edgeStyle=orthogonalEdgeStyle;rounded=0;orthogonalLoop=1;jettySize=auto;html=1;exitX=0.75;exitY=1;exitDx=0;exitDy=0;entryX=0;entryY=0.75;entryDx=0;entryDy=0;" edge="1" parent="1" source="MKO6IdKLwE_xbSHV2B4L-164" target="MKO6IdKLwE_xbSHV2B4L-169">
          <mxGeometry relative="1" as="geometry" />
        </mxCell>
        <mxCell id="MKO6IdKLwE_xbSHV2B4L-164" value="Create Object of&amp;nbsp;&lt;br&gt;view_mode_Movie2" style="whiteSpace=wrap;html=1;rounded=1;strokeColor=#36393d;fillColor=#ffff88;" vertex="1" parent="1">
          <mxGeometry x="9.995000000000005" y="3120" width="120" height="60" as="geometry" />
        </mxCell>
        <mxCell id="MKO6IdKLwE_xbSHV2B4L-172" style="edgeStyle=orthogonalEdgeStyle;rounded=0;orthogonalLoop=1;jettySize=auto;html=1;" edge="1" parent="1" source="MKO6IdKLwE_xbSHV2B4L-165" target="MKO6IdKLwE_xbSHV2B4L-171">
          <mxGeometry relative="1" as="geometry" />
        </mxCell>
        <mxCell id="MKO6IdKLwE_xbSHV2B4L-165" value="it has getMovies(id) from the movie db&lt;br&gt;to fill Movie_2" style="whiteSpace=wrap;html=1;rounded=1;strokeColor=#36393d;fillColor=#ffff88;" vertex="1" parent="1">
          <mxGeometry x="209.995" y="3120" width="120" height="60" as="geometry" />
        </mxCell>
        <mxCell id="MKO6IdKLwE_xbSHV2B4L-173" style="edgeStyle=orthogonalEdgeStyle;rounded=0;orthogonalLoop=1;jettySize=auto;html=1;" edge="1" parent="1" source="MKO6IdKLwE_xbSHV2B4L-167">
          <mxGeometry relative="1" as="geometry">
            <mxPoint x="400" y="3200" as="targetPoint" />
          </mxGeometry>
        </mxCell>
        <mxCell id="MKO6IdKLwE_xbSHV2B4L-167" value="it has getMovieOmdb&amp;nbsp;&lt;br&gt;to fill Movie_omdb&lt;br&gt;" style="whiteSpace=wrap;html=1;rounded=1;strokeColor=#36393d;fillColor=#ffff88;" vertex="1" parent="1">
          <mxGeometry x="200.005" y="3200" width="120" height="60" as="geometry" />
        </mxCell>
        <mxCell id="MKO6IdKLwE_xbSHV2B4L-174" style="edgeStyle=orthogonalEdgeStyle;rounded=0;orthogonalLoop=1;jettySize=auto;html=1;" edge="1" parent="1" source="MKO6IdKLwE_xbSHV2B4L-169">
          <mxGeometry relative="1" as="geometry">
            <mxPoint x="400" y="3190" as="targetPoint" />
          </mxGeometry>
        </mxCell>
        <mxCell id="MKO6IdKLwE_xbSHV2B4L-169" value="it has getArtivleAsTitle&lt;br&gt;to fill article from NyTimes" style="whiteSpace=wrap;html=1;rounded=1;strokeColor=#36393d;fillColor=#ffff88;" vertex="1" parent="1">
          <mxGeometry x="186.245" y="3290" width="120" height="60" as="geometry" />
        </mxCell>
        <mxCell id="MKO6IdKLwE_xbSHV2B4L-176" style="edgeStyle=orthogonalEdgeStyle;rounded=0;orthogonalLoop=1;jettySize=auto;html=1;entryX=0;entryY=0.5;entryDx=0;entryDy=0;" edge="1" parent="1" source="MKO6IdKLwE_xbSHV2B4L-171" target="MKO6IdKLwE_xbSHV2B4L-175">
          <mxGeometry relative="1" as="geometry" />
        </mxCell>
        <mxCell id="MKO6IdKLwE_xbSHV2B4L-171" value="all of them create their own repo object to use retrofit" style="rounded=0;whiteSpace=wrap;html=1;" vertex="1" parent="1">
          <mxGeometry x="405.38" y="3170" width="120" height="60" as="geometry" />
        </mxCell>
        <mxCell id="MKO6IdKLwE_xbSHV2B4L-178" value="" style="edgeStyle=orthogonalEdgeStyle;rounded=0;orthogonalLoop=1;jettySize=auto;html=1;" edge="1" parent="1" source="MKO6IdKLwE_xbSHV2B4L-175" target="MKO6IdKLwE_xbSHV2B4L-177">
          <mxGeometry relative="1" as="geometry" />
        </mxCell>
        <mxCell id="MKO6IdKLwE_xbSHV2B4L-175" value="show data" style="rounded=0;whiteSpace=wrap;html=1;" vertex="1" parent="1">
          <mxGeometry x="580" y="3170" width="120" height="60" as="geometry" />
        </mxCell>
        <mxCell id="MKO6IdKLwE_xbSHV2B4L-177" value="see if it&#39;s saved as favorite or I wantToWatch or Watched&lt;br&gt;" style="rounded=0;whiteSpace=wrap;html=1;" vertex="1" parent="1">
          <mxGeometry x="590" y="3320" width="120" height="60" as="geometry" />
        </mxCell>
        <mxCell id="MKO6IdKLwE_xbSHV2B4L-179" value="FoveriteList is used for all local data base&amp;nbsp;&lt;br&gt;I just change the title" style="rounded=0;whiteSpace=wrap;html=1;" vertex="1" parent="1">
          <mxGeometry x="25" y="3540" width="120" height="60" as="geometry" />
        </mxCell>
      </root>
    </mxGraphModel>
  </diagram>
</mxfile>
